# xmcd CD database file
#
# Track frame offsets:
#	150
#	14362
#	29133
#	49695
#	69814
#	93447
#	106060
#	122562
#	144092
#	160540
#	178011
#	201140
#	227834
#	244935
#	261437
#
# Disc length: 3851 seconds
#
# Revision: 0
# Processed by: cddbd v1.5.2PL0 Copyright (c) Steve Scherf et al.
# Submitted via: CDex 1.81
#
DISCID=c30f090f
DTITLE=Count Basie - Ultimate Count Basie Big Band Selection [Disc.1]
DYEAR=2014
DGENRE=Jazz
TTITLE0=Magic Flea
TTITLE1=This Could Be The Start Of Something Big
TTITLE2=Basie
TTITLE3=Blues Backstage
TTITLE4=Shiny Stockings
TTITLE5=I Just Found Out About Love
TTITLE6=The More I See You
TTITLE7=Corner Pocket
TTITLE8=Orange Sherbet
TTITLE9=Fun Time
TTITLE10=A Night In Tunisia
TTITLE11=In A Mellow Tone
TTITLE12=April In Paris
TTITLE13=Jumpin' At The Woodside
TTITLE14=Midnight Freight
EXTD=YEAR: 2014
EXTT0=
EXTT1=
EXTT2=
EXTT3=
EXTT4=
EXTT5=
EXTT6=
EXTT7=
EXTT8=
EXTT9=
EXTT10=
EXTT11=
EXTT12=
EXTT13=
EXTT14=
PLAYORDER=
